<svg width="500" height="424" viewBox="0 0 500 424" fill="none" xmlns="http://www.w3.org/2000/svg">
<g clip-path="url(#clip0_2_17)">
<path opacity="0.1" d="M465.229 285.187C445.687 300.732 444.003 331.265 447.361 357.089C448.487 365.733 449.901 374.943 446.491 382.868C442.32 392.559 431.972 397.521 422.083 398.873C404.059 401.334 385.103 393.987 372.731 379.738C362.038 367.424 356.362 350.81 345.348 338.825C326.903 318.769 297.736 315.827 271.569 318.343C253.053 320.121 232.456 323.447 217.506 311.614C206.988 303.284 201.899 288.98 200.67 275.035C200.083 268.301 200.197 261.237 197.359 255.206C195.661 251.621 193.013 248.654 190.203 245.986C164.551 221.625 124.97 219.149 100.609 193.325C84.1555 175.881 77.3451 150.022 77.7187 125.236C78.0923 100.45 84.9027 76.3224 92.3799 52.8277C97.6816 36.1484 104.062 18.5477 117.512 8.40036C131.705 -2.32923 151.398 -2.14188 167.346 5.33187C183.294 12.8056 195.978 26.5683 206.425 41.4753C219.483 60.109 230.475 81.7808 249.392 93.2902C262.299 101.154 277.372 103.286 291.839 106.724C316.02 112.461 339.228 122.091 362.227 131.94C384.247 141.363 406.357 151.121 426.003 165.359C439.908 175.42 449.613 189.158 462.283 200.48C470.54 207.857 480.5 212.126 487.935 220.622C497.091 231.089 503.973 246.664 497.394 260.624C491.151 273.886 475.596 276.934 465.229 285.187Z" fill="#2659DB"/>
<path d="M381.339 88.6876H250.158V93.2194H381.339V88.6876Z" fill="#EBECF0"/>
<path d="M381.339 93.2194H250.158V167.8H381.339V93.2194Z" fill="#F8F9FA"/>
<path opacity="0.5" d="M380.459 115.944C378.435 116.334 376.675 117.413 374.878 118.39C372.514 119.676 370.655 120 368.058 119.205C366.441 118.699 364.615 118.264 363.04 119.16C361.054 120.289 360.827 123.307 357.928 122.355C356.925 122.026 356.509 123.707 357.498 124.036C358.34 124.333 359.246 124.356 360.101 124.103C360.956 123.849 361.722 123.331 362.303 122.613C363.182 121.504 363.551 120.421 365.14 120.38C366.375 120.35 367.538 120.886 368.716 121.211C373.393 122.436 376.557 118.461 380.889 117.626C381.92 117.423 381.481 115.747 380.459 115.944Z" fill="#2659DB"/>
<path d="M357.833 122.517C353.359 122.011 348.847 121.55 344.355 122.173C340.287 122.74 336.787 124.461 333.217 126.563C329.646 128.664 326.165 130.76 322.046 130.583C317.926 130.406 314.19 128.558 310.222 127.884C306.406 127.256 303.402 128.168 300.29 130.548C298.46 131.945 296.682 132.958 294.398 133.161C292.383 133.338 290.359 133.09 288.339 133.064C284.922 132.951 281.568 134.069 278.814 136.239C276.189 138.265 273.924 140.796 271.157 142.594C267.615 144.898 264.262 144.452 260.814 142.189C257.697 140.163 254.836 137.515 251.014 137.338C249.969 137.287 249.969 139.034 251.014 139.08C254.628 139.247 257.404 142.062 260.369 143.941C263.004 145.607 265.931 146.528 268.953 145.576C275.049 143.652 278.45 136.553 284.74 135.095C288.855 134.143 293.168 135.748 297.24 134.345C299.028 133.733 300.446 132.507 301.969 131.388C303.598 130.107 305.558 129.399 307.578 129.363C311.598 129.363 315.406 131.221 319.322 131.96C322.91 132.644 326.608 132.094 329.887 130.391C334.054 128.34 337.771 125.403 342.316 124.314C347.41 123.079 352.721 123.687 357.862 124.254C358.888 124.375 358.879 122.633 357.833 122.517Z" fill="#2659DB"/>
<path d="M357.904 125.975C359.701 125.975 361.158 124.416 361.158 122.492C361.158 120.568 359.701 119.008 357.904 119.008C356.107 119.008 354.65 120.568 354.65 122.492C354.65 124.416 356.107 125.975 357.904 125.975Z" fill="#2659DB"/>
<path d="M252.944 91.8219C253.482 91.8219 253.918 91.3549 253.918 90.7788C253.918 90.2027 253.482 89.7357 252.944 89.7357C252.406 89.7357 251.97 90.2027 251.97 90.7788C251.97 91.3549 252.406 91.8219 252.944 91.8219Z" fill="#F8F9FA"/>
<path d="M255.545 91.8219C256.083 91.8219 256.52 91.3549 256.52 90.7788C256.52 90.2027 256.083 89.7357 255.545 89.7357C255.007 89.7357 254.571 90.2027 254.571 90.7788C254.571 91.3549 255.007 91.8219 255.545 91.8219Z" fill="#F8F9FA"/>
<path d="M258.151 91.8219C258.689 91.8219 259.125 91.3549 259.125 90.7788C259.125 90.2027 258.689 89.7357 258.151 89.7357C257.613 89.7357 257.177 90.2027 257.177 90.7788C257.177 91.3549 257.613 91.8219 258.151 91.8219Z" fill="#F8F9FA"/>
<path d="M3.36743 285.927C3.36743 285.927 -20.0764 325.139 56.7769 325.812C56.7769 325.812 57.9072 291.694 32.7845 277.638C27.8994 274.893 22.2435 274.161 16.8882 275.581C11.5328 277.001 6.85004 280.475 3.72686 285.345L3.36743 285.927Z" fill="#2659DB"/>
<path d="M3.54234 285.269C3.54234 285.269 42.9054 293.573 56.7768 325.812" stroke="#535461" stroke-miterlimit="10"/>
<path d="M60.2104 320.536C60.2104 320.536 34.9363 285.567 37.2443 251.095C38.1901 236.628 35.0167 222.177 27.6861 209.974C24.1979 204.196 20.2228 198.772 15.8105 193.771" stroke="#535461" stroke-width="2" stroke-miterlimit="10"/>
<path d="M17.1343 172.043C18.8984 176.884 15.829 194.348 15.829 194.348C15.829 194.348 2.52512 183.72 0.761041 178.879C0.295903 177.719 0.0535863 176.47 0.0485201 175.207C0.043454 173.944 0.27574 172.693 0.731551 171.529C1.18736 170.364 1.85738 169.31 2.70172 168.428C3.54605 167.546 4.54744 166.856 5.64628 166.397C6.74512 165.938 7.91894 165.721 9.09786 165.758C10.2768 165.795 11.4367 166.085 12.5086 166.612C13.5805 167.139 14.5424 167.891 15.3371 168.824C16.1317 169.757 16.743 170.852 17.1343 172.043Z" fill="#2659DB"/>
<path d="M40.4508 193.199C39.4765 198.292 28.0313 211.164 28.0313 211.164C28.0313 211.164 22.252 194.505 23.2262 189.391C23.4332 188.155 23.8691 186.975 24.5084 185.922C25.1476 184.869 25.9773 183.964 26.9484 183.259C27.9195 182.555 29.0125 182.065 30.163 181.82C31.3135 181.575 32.4982 181.578 33.6473 181.831C34.7965 182.083 35.8868 182.579 36.8541 183.29C37.8214 184 38.6462 184.911 39.2797 185.968C39.9133 187.025 40.3429 188.207 40.5432 189.444C40.7435 190.682 40.7105 191.95 40.4461 193.173L40.4508 193.199Z" fill="#2659DB"/>
<path d="M56.5687 239.277C53.3243 243.145 37.3814 248.072 37.3814 248.072C37.3814 248.072 40.2474 230.567 43.4871 226.699C45.0544 224.88 47.2276 223.796 49.5363 223.679C51.845 223.563 54.1036 224.425 55.8232 226.079C57.5428 227.732 58.5851 230.044 58.7247 232.514C58.8642 234.984 58.0897 237.413 56.5687 239.277Z" fill="#2659DB"/>
<path d="M61.4306 277.086C58.8436 281.486 43.9033 289.238 43.9033 289.238C43.9033 289.238 43.9648 271.471 46.5518 267.07C47.1544 265.997 47.9511 265.063 48.8951 264.324C49.8391 263.584 50.9114 263.053 52.0493 262.763C53.1872 262.473 54.3678 262.429 55.5218 262.633C56.6759 262.837 57.7803 263.286 58.7703 263.953C59.7603 264.62 60.616 265.492 61.2873 266.518C61.9586 267.544 62.432 268.702 62.6797 269.926C62.9275 271.15 62.9446 272.415 62.7301 273.646C62.5156 274.877 62.0738 276.05 61.4306 277.096V277.086Z" fill="#2659DB"/>
<path d="M11.1662 219.286C15.6402 221.311 32.0277 218.486 32.0277 218.486C32.0277 218.486 22.4837 203.943 18.0097 201.918C16.9445 201.437 15.8013 201.185 14.6453 201.177C13.4892 201.169 12.343 201.405 11.2721 201.871C10.2012 202.337 9.22656 203.025 8.4038 203.894C7.58104 204.764 6.9263 205.798 6.47695 206.938C6.0276 208.079 5.79245 209.303 5.78492 210.54C5.77739 211.778 5.99763 213.005 6.43306 214.152C6.8685 215.298 7.5106 216.342 8.32271 217.223C9.13482 218.104 10.101 218.805 11.1662 219.286Z" fill="#2659DB"/>
<path d="M17.3901 263.425C22.2236 263.931 37.0693 255.976 37.0693 255.976C37.0693 255.976 23.8883 245.181 19.0549 244.685C17.8894 244.532 16.7073 244.632 15.5783 244.977C14.4493 245.322 13.3962 245.906 12.4813 246.694C11.5664 247.481 10.8082 248.457 10.2513 249.564C9.69449 250.671 9.35031 251.886 9.23911 253.137C9.12792 254.388 9.25195 255.651 9.60391 256.85C9.95586 258.049 10.5286 259.161 11.2883 260.119C12.0481 261.078 12.9794 261.864 14.0274 262.43C15.0754 262.997 16.2188 263.334 17.3901 263.42V263.425Z" fill="#2659DB"/>
<path d="M28.9252 305.431C33.6121 306.794 49.4982 301.649 49.4982 301.649C49.4982 301.649 38.2091 288.621 33.5222 287.264C32.4002 286.913 31.2243 286.806 30.0632 286.949C28.9022 287.091 27.7792 287.479 26.76 288.092C25.7409 288.704 24.8459 289.528 24.1276 290.515C23.4092 291.501 22.8818 292.632 22.5762 293.839C22.2707 295.047 22.193 296.308 22.3479 297.548C22.5027 298.788 22.887 299.983 23.4781 301.062C24.0693 302.142 24.8555 303.084 25.7907 303.834C26.726 304.584 27.7916 305.127 28.9252 305.431Z" fill="#2659DB"/>
<path opacity="0.25" d="M17.1343 172.043C18.8984 176.884 15.829 194.348 15.829 194.348C15.829 194.348 2.52512 183.72 0.761041 178.879C0.295903 177.719 0.0535863 176.47 0.0485201 175.207C0.043454 173.944 0.27574 172.693 0.731551 171.529C1.18736 170.364 1.85738 169.31 2.70172 168.428C3.54605 167.546 4.54744 166.856 5.64628 166.397C6.74512 165.938 7.91894 165.721 9.09786 165.758C10.2768 165.795 11.4367 166.085 12.5086 166.612C13.5805 167.139 14.5424 167.891 15.3371 168.824C16.1317 169.757 16.743 170.852 17.1343 172.043Z" fill="black"/>
<path opacity="0.25" d="M40.4508 193.199C39.4765 198.292 28.0313 211.164 28.0313 211.164C28.0313 211.164 22.252 194.505 23.2262 189.391C23.4332 188.155 23.8691 186.975 24.5084 185.922C25.1476 184.869 25.9773 183.964 26.9484 183.259C27.9195 182.555 29.0125 182.065 30.163 181.82C31.3135 181.575 32.4982 181.578 33.6473 181.831C34.7965 182.083 35.8868 182.579 36.8541 183.29C37.8214 184 38.6462 184.911 39.2797 185.968C39.9133 187.025 40.3429 188.207 40.5432 189.444C40.7435 190.682 40.7105 191.95 40.4461 193.173L40.4508 193.199Z" fill="black"/>
<path opacity="0.25" d="M56.5687 239.277C53.3243 243.145 37.3814 248.072 37.3814 248.072C37.3814 248.072 40.2474 230.567 43.4871 226.699C45.0544 224.88 47.2276 223.796 49.5363 223.679C51.845 223.563 54.1036 224.425 55.8232 226.079C57.5428 227.732 58.5851 230.044 58.7247 232.514C58.8642 234.984 58.0897 237.413 56.5687 239.277Z" fill="black"/>
<path opacity="0.25" d="M61.4306 277.086C58.8436 281.486 43.9033 289.238 43.9033 289.238C43.9033 289.238 43.9648 271.471 46.5518 267.07C47.1544 265.997 47.9511 265.063 48.8951 264.324C49.8391 263.584 50.9114 263.053 52.0493 262.763C53.1872 262.473 54.3678 262.429 55.5218 262.633C56.6759 262.837 57.7803 263.286 58.7703 263.953C59.7603 264.62 60.616 265.492 61.2873 266.518C61.9586 267.544 62.432 268.702 62.6797 269.926C62.9275 271.15 62.9446 272.415 62.7301 273.646C62.5156 274.877 62.0738 276.05 61.4306 277.096V277.086Z" fill="black"/>
<path opacity="0.25" d="M11.1662 219.286C15.6402 221.311 32.0277 218.486 32.0277 218.486C32.0277 218.486 22.4837 203.943 18.0097 201.918C16.9445 201.437 15.8013 201.185 14.6453 201.177C13.4892 201.169 12.343 201.405 11.2721 201.871C10.2012 202.337 9.22656 203.025 8.4038 203.894C7.58104 204.764 6.9263 205.798 6.47695 206.938C6.0276 208.079 5.79245 209.303 5.78492 210.54C5.77739 211.778 5.99763 213.005 6.43306 214.152C6.8685 215.298 7.5106 216.342 8.32271 217.223C9.13482 218.104 10.101 218.805 11.1662 219.286Z" fill="black"/>
<path opacity="0.25" d="M17.3901 263.425C22.2236 263.931 37.0693 255.976 37.0693 255.976C37.0693 255.976 23.8883 245.181 19.0549 244.685C17.8894 244.532 16.7073 244.632 15.5783 244.977C14.4493 245.322 13.3962 245.906 12.4813 246.694C11.5664 247.481 10.8082 248.457 10.2513 249.564C9.69449 250.671 9.35031 251.886 9.23911 253.137C9.12792 254.388 9.25195 255.651 9.60391 256.85C9.95586 258.049 10.5286 259.161 11.2883 260.119C12.0481 261.078 12.9794 261.864 14.0274 262.43C15.0754 262.997 16.2188 263.334 17.3901 263.42V263.425Z" fill="black"/>
<path opacity="0.25" d="M28.9252 305.431C33.6121 306.794 49.4982 301.649 49.4982 301.649C49.4982 301.649 38.2091 288.621 33.5222 287.264C32.4002 286.913 31.2243 286.806 30.0632 286.949C28.9022 287.091 27.7792 287.479 26.76 288.092C25.7409 288.704 24.8459 289.528 24.1276 290.515C23.4092 291.501 22.8818 292.632 22.5762 293.839C22.2707 295.047 22.193 296.308 22.3479 297.548C22.5027 298.788 22.887 299.983 23.4781 301.062C24.0693 302.142 24.8555 303.084 25.7907 303.834C26.726 304.584 27.7916 305.127 28.9252 305.431Z" fill="black"/>
<path opacity="0.1" d="M219.209 253.399C210.223 253.186 200.57 253.667 193.429 257.45C180.187 264.447 181.97 278.64 173.334 288.489C166.041 296.803 152.103 301.122 138.586 303.877C116.566 308.368 93.4725 310.049 71.6036 314.875C58.7111 317.721 45.9133 321.858 37.0787 328.936C28.2441 336.015 24.2809 346.573 30.2542 354.948C35.7781 362.69 47.947 366.832 59.028 370.842C70.1091 374.852 81.8475 380.113 84.9311 388.473C86.6479 393.126 85.3709 398.144 87.3762 402.737C91.33 411.801 106.138 416.079 119.442 418.393C130.069 420.242 140.871 421.604 151.758 422.444C160.455 423.128 169.351 423.487 177.888 422.156C185.28 421.001 192.124 418.611 199.213 416.773C244.256 405.031 296.062 415.188 342.004 405.243C350.366 403.446 358.59 400.914 364.928 396.772C369.657 393.694 373.157 389.845 376.103 385.855C383.604 375.728 387.714 364.371 388.031 352.983C388.22 346.157 387.085 339.261 388.83 332.536C390.66 325.539 395.546 319.103 398.147 312.222C402.877 299.715 399.566 285.891 389.27 275.071C385.595 271.083 381.089 268.084 376.122 266.321C371.96 264.893 367.306 264.346 362.724 263.789C349.954 262.306 337.019 260.817 324.136 261.652C314.971 262.25 305.999 264.017 296.805 264.336C283.903 264.787 273.796 261.602 262.1 258.609C248.645 255.196 233.506 253.733 219.209 253.399Z" fill="#2659DB"/>
<path d="M56.8194 149.885V285.319L225.13 250.315L221.914 146.442L56.8194 149.885Z" fill="#DBACA2"/>
<path d="M373.204 309.568V354.33L195.245 409.998L193.429 408.99L52.6669 330.799V145.723L226.871 139.697L227.944 242.421L220.973 244.72L218.291 148.64L64.9918 154.331L63.923 293.497L197.387 356.051L197.491 356.026L373.204 309.568Z" fill="#E8C2B8"/>
<path opacity="0.1" d="M373.204 309.568V354.33L195.245 409.998L193.429 408.991L197.492 356.026L373.204 309.568Z" fill="black"/>
<path d="M158.663 244.573C158.663 244.573 72.5021 253.779 64.1358 267.111C55.7694 280.443 64.0648 296.798 64.0648 296.798L197.264 358.776L377.9 308.849C377.9 308.849 373.076 273.84 358.07 269.825C343.063 265.81 223.518 238.264 223.518 238.264C223.518 238.264 175.277 235.104 158.663 244.573Z" fill="#EBECF0"/>
<path d="M64.0554 267.237L199.937 317.452C199.937 317.452 344.87 270.402 365.4 274.833C365.4 274.833 264.016 235.98 223.518 237.671C191.244 239.018 157.452 244.69 157.452 244.69C157.452 244.69 67.8106 254.33 64.0554 267.237Z" fill="#F8F9FA"/>
<path d="M273.12 299.543L273.153 299.492V299.462L273.177 299.411V299.376V299.325V299.29V299.234V299.199V299.133V299.102C273.177 299.072 273.177 299.042 273.177 299.011C273.177 298.976 273.177 298.94 273.177 298.905C273.177 298.869 273.177 298.905 273.177 298.869C273.177 298.834 273.177 298.819 273.177 298.793V298.748V298.672V298.621V298.545V298.495V298.414V298.363V298.277V298.231L273.139 298.105L273.091 297.963V297.917L273.054 297.816V297.761L273.016 297.664L272.992 297.604L272.954 297.507L272.926 297.442L272.883 297.345L272.855 297.285L272.803 297.178L272.775 297.122L272.704 296.976L272.618 296.803L272.59 296.748L272.529 296.626L272.495 296.56L272.434 296.449L272.396 296.378L272.335 296.267L272.231 296.1L272.164 295.988L272.122 295.917L272.051 295.796L272.013 295.73L271.918 295.568V295.538L271.8 295.345L271.762 295.29L271.677 295.153L271.63 295.082L271.55 294.96L271.502 294.884L271.422 294.763L271.37 294.682L271.285 294.581L271.233 294.505L271.143 294.373L271.096 294.307L270.977 294.135V294.11L270.84 293.907L270.793 293.836L270.703 293.705L270.642 293.619L270.556 293.497L270.495 293.411L270.41 293.289L270.348 293.208L270.258 293.082L270.197 293.001L270.102 292.869L270.046 292.793L269.932 292.641L269.894 292.591C269.469 292.013 269.029 291.436 268.589 290.879C267.348 289.3 265.829 287.999 264.119 287.049C262.408 286.1 260.539 285.521 258.619 285.345C258.227 285.309 257.815 285.264 257.399 285.208H257.224L256.917 285.162H256.77L256.297 285.092L255.848 285.016L255.692 284.985L255.375 284.924L255.186 284.884L254.897 284.823L254.694 284.778L254.42 284.712L254.212 284.661L253.937 284.59L253.724 284.535L253.455 284.459L253.242 284.398L252.972 284.317C251.554 282.058 249.397 280.048 247.297 279.658C246.719 279.562 246.128 279.595 245.561 279.755L245.462 279.638L245.32 279.466L245.131 279.208L245.008 279.036L244.809 278.737L244.71 278.59C244.612 278.438 244.519 278.283 244.431 278.124C244.152 277.991 243.86 277.891 243.561 277.825C247.746 277.147 251.872 276.105 255.9 274.711C256.095 274.632 256.281 274.529 256.453 274.402L256.538 274.372C260.043 273.005 264.347 259.688 261.32 257.824C258.293 255.961 253.672 240.608 250.962 232.745C248.252 224.881 240.444 224.046 240.444 224.046C240.444 224.046 229.131 214.663 224.033 215.686C218.935 216.709 218.135 208.521 217.658 208.182C217.602 208.132 217.556 208.072 217.521 208.004C216.291 205.944 206.515 203.194 201.242 201.837C196.087 197.837 189.939 194.733 184.968 193.452C183.307 192.971 181.566 192.908 179.879 193.268C178.192 193.628 176.605 194.402 175.244 195.528C164.802 196.095 163.137 204.541 163.137 204.541C163.101 205.693 163.288 206.842 163.686 207.913C163.121 207.921 162.557 207.889 161.997 207.817C163.208 205.675 163.246 202.921 164.149 200.566C165.932 195.908 170.851 193.502 175.5 192.875C178.21 192.51 181.175 192.51 183.313 190.692C184.413 189.751 185.164 188.421 185.431 186.94C185.518 186.62 185.491 186.278 185.356 185.978C185.223 185.784 185.046 185.63 184.84 185.532C182.04 183.932 178.668 184.348 175.49 184.272C170.326 184.15 165.294 182.636 160.299 181.234C158.185 180.641 155.901 180.069 153.858 180.909C151.928 181.699 150.613 183.583 149.067 185.046C142.729 191.031 132.206 190.166 126.569 196.91C125.264 198.475 124.285 200.596 124.762 202.632C124.956 203.462 125.387 204.227 125.524 205.073C125.798 206.744 124.909 208.344 124.157 209.837C123.405 211.331 122.738 213.144 123.448 214.663C124.521 216.982 127.799 216.81 129.501 218.648C130.291 219.504 130.674 220.729 131.497 221.544C132.817 222.846 134.845 222.744 136.633 222.557C137.338 222.486 138.393 222.278 138.78 221.615C140.163 223.008 141.829 224.037 143.647 224.623C145.465 225.209 147.385 225.336 149.256 224.992C151.127 224.648 152.898 223.844 154.429 222.643C155.961 221.442 157.211 219.877 158.081 218.071C161.934 217.792 165.763 218.901 168.959 221.22C169.44 222.74 170.324 224.077 171.503 225.068C172.619 226.005 173.948 227.155 175.287 228.385C171.896 229.342 168.883 229.955 168.883 229.955C168.883 229.955 155.499 234.563 155.499 237.631C155.546 238.187 155.708 238.725 155.972 239.206C155.633 239.969 155.442 240.797 155.409 241.641C151.715 240.973 148.759 239.965 147.232 238.482C147.232 238.482 146.797 238.355 146.125 238.213C145.227 236.983 142.588 233.565 141.017 233.702C139.972 233.793 139.599 236.396 139.466 238.725C139.329 238.852 139.208 238.999 139.107 239.16C137.513 241.717 140.384 246.837 142.294 247.692C144.205 248.548 154.723 248.199 161.893 253.834C165.071 256.331 170.534 256.812 175.608 256.579C170.505 260.437 163.359 266.367 162.366 270.043C161.832 271.992 161.203 274.413 161.24 276.899C158.119 281.319 153.394 290.651 165.076 295.127C174.705 298.809 200.812 298.338 219.412 297.436C228.067 299.072 235.213 300.718 238.212 302.292C238.212 302.292 245.382 303.305 248.252 305.194C251.123 307.082 256.378 306.561 256.378 306.561C256.378 306.561 266.574 308.439 268.807 310.824C271.039 313.209 274.86 306.728 270.083 303.66C268.22 302.465 265.444 300.495 262.753 298.338C266.21 298.773 269.261 299.249 271.2 299.735L271.394 299.781H271.455H271.578H271.649H271.753H271.819H271.918H272.391H272.514H272.552H272.628H272.67H272.732H272.77H272.827H272.864L272.916 299.756H272.95L272.997 299.72H273.02L273.082 299.664L273.12 299.543ZM229.103 283.188C229.103 283.188 227.76 282.859 225.755 282.352L221.772 280.631C221.772 280.631 228.569 278.342 234.863 275.43C236.665 276.276 238.25 276.949 238.647 277.562C238.818 277.765 239.051 277.896 239.304 277.932C236.94 278.56 233.903 280.175 230.342 283.902C229.91 283.703 229.495 283.464 229.103 283.188ZM180.986 242.072L184.916 240.117C185.772 240.897 186.689 241.636 187.588 242.355C185.431 242.492 182.532 242.644 179.255 242.74C180.257 242.381 180.986 242.072 180.986 242.072Z" fill="url(#paint0_linear_2_17)"/>
<path d="M147.497 238.811C147.497 238.811 144.063 233.818 142.195 233.97C140.327 234.122 140.634 242.487 140.634 242.487L147.497 238.811Z" fill="#FFD5D8"/>
<path d="M191.641 242.153C191.641 242.153 155.139 245.328 148.277 238.644C148.277 238.644 141.883 236.806 140.322 239.312C138.761 241.819 141.571 246.826 143.444 247.662C145.316 248.497 155.612 248.168 162.631 253.672C169.649 259.176 188.056 254.685 188.056 254.685L195.699 251.51L191.641 242.153Z" fill="#FF7C5E"/>
<path opacity="0.05" d="M191.641 242.153C191.641 242.153 155.139 245.328 148.277 238.644C148.277 238.644 141.883 236.806 140.322 239.312C138.761 241.819 141.571 246.826 143.444 247.662C145.316 248.497 155.612 248.168 162.631 253.672C169.649 259.176 188.056 254.685 188.056 254.685L195.699 251.51L191.641 242.153Z" fill="black"/>
<path d="M243.897 260.857C243.897 260.857 236.098 254.847 220.032 262.376C203.966 269.906 163.879 273.901 163.879 273.901C163.879 273.901 150.467 288.261 165.771 294.11C181.076 299.958 238.77 295.122 238.77 295.122C238.77 295.122 262.323 296.793 269.653 298.631C274.089 299.745 270.599 294.368 267.123 289.952C265.909 288.406 264.422 287.131 262.747 286.201C261.072 285.271 259.242 284.705 257.361 284.534C252.755 284.114 246.365 282.565 243.443 277.42C243.443 277.42 237.829 274.412 229.406 283.431L221.281 279.896C221.281 279.896 243.585 272.382 244.365 267.369C245.145 262.356 243.897 260.857 243.897 260.857Z" fill="#FFD5D8"/>
<path opacity="0.05" d="M243.897 260.857C243.897 260.857 236.098 254.847 220.032 262.376C203.966 269.906 163.879 273.901 163.879 273.901C163.879 273.901 150.467 288.261 165.771 294.11C181.076 299.958 238.77 295.122 238.77 295.122C238.77 295.122 262.323 296.793 269.653 298.631C273.541 299.604 271.332 295.593 268.405 291.634C266.945 289.645 265.132 287.984 263.07 286.749C261.008 285.513 258.739 284.726 256.392 284.433C251.899 283.886 246.167 282.21 243.447 277.42C243.447 277.42 237.834 274.412 229.41 283.431L221.281 279.896C221.281 279.896 243.585 272.382 244.365 267.369C245.145 262.356 243.897 260.857 243.897 260.857Z" fill="black"/>
<path d="M244.053 237.145C244.053 237.145 234.225 220.435 210.985 234.973L181.189 252.695C181.189 252.695 164.636 263.885 163.094 269.562C161.553 275.238 159.193 284.924 175.419 288.6C191.646 292.276 229.392 296.95 237.346 301.127C237.346 301.127 244.365 302.14 247.174 303.968C249.983 305.796 255.129 305.305 255.129 305.305C255.129 305.305 265.113 307.143 267.298 309.482C269.483 311.822 273.224 305.472 268.546 302.469C263.869 299.467 253.261 291.446 253.412 288.291C253.564 285.137 249.823 279.562 246.219 278.883C242.615 278.205 237.952 283.891 237.952 283.891C237.952 283.891 232.026 284.904 228.436 282.372C228.436 282.372 210.029 277.861 208.156 276.529C206.284 275.197 193.495 270.017 193.495 270.017C193.495 270.017 223.764 269.683 232.645 260.999C232.645 260.999 236.079 258.326 238.883 259.161C238.907 259.186 252.788 253.51 244.053 237.145Z" fill="#FFD5D8"/>
<path d="M155.608 205.746C155.608 205.746 164.499 212.425 171.361 205.746C178.224 199.067 174.331 226.289 174.331 226.289C174.331 226.289 164.816 212.759 150.623 221.615L155.608 205.746Z" fill="#FFD5D8"/>
<path opacity="0.05" d="M155.608 205.746C155.608 205.746 164.499 212.425 171.361 205.746C178.224 199.067 174.331 226.289 174.331 226.289C174.331 226.289 164.816 212.759 150.623 221.615L155.608 205.746Z" fill="black"/>
<path d="M117.55 263.03C117.55 263.03 126.91 254.513 132.211 254.346C133.791 254.295 135.616 252.573 137.414 250.184C139.684 247.164 142.678 244.862 146.076 243.524C149.474 242.186 153.148 241.863 156.705 242.588C159.722 243.186 163.435 243.171 167.942 241.976C184.32 237.631 176.209 226.785 176.209 226.785L171.063 222.111C171.063 222.111 164.045 216.936 161.392 217.271C158.739 217.605 151.876 225.119 151.096 224.284C150.315 223.448 140.8 215.934 139.239 213.929C137.678 211.924 125.193 205.412 128.314 203.574C131.436 201.736 147.185 194.89 144.063 193.553C140.942 192.216 124.095 190.211 117.545 198.561C110.995 206.911 114.268 258.184 117.55 263.03Z" fill="#F8F9FA"/>
<path opacity="0.05" d="M117.55 263.03C117.55 263.03 126.91 254.513 132.211 254.346C133.791 254.295 135.616 252.573 137.414 250.184C139.684 247.164 142.678 244.862 146.076 243.524C149.474 242.186 153.148 241.863 156.705 242.588C159.722 243.186 163.435 243.171 167.942 241.976C184.32 237.631 176.209 226.785 176.209 226.785L171.063 222.111C171.063 222.111 164.045 216.936 161.392 217.271C158.739 217.605 151.876 225.119 151.096 224.284C150.315 223.448 140.8 215.934 139.239 213.929C137.678 211.924 125.193 205.412 128.314 203.574C131.436 201.736 147.185 194.89 144.063 193.553C140.942 192.216 124.095 190.211 117.545 198.561C110.995 206.911 114.268 258.184 117.55 263.03Z" fill="black"/>
<path d="M118.174 261.86C118.174 261.86 127.534 253.343 132.835 253.176C134.415 253.125 136.241 251.404 138.038 249.014C140.306 245.998 143.296 243.697 146.689 242.359C150.083 241.02 153.752 240.693 157.306 241.413C160.323 242.011 164.036 241.996 168.543 240.801C184.921 236.456 176.81 225.61 176.81 225.61L171.664 220.937C171.664 220.937 164.646 215.762 161.992 216.096C159.339 216.43 152.477 223.944 151.696 223.109C150.916 222.273 141.4 214.759 139.84 212.754C138.279 210.749 125.817 204.242 128.929 202.424C132.041 200.607 147.804 193.74 144.683 192.404C141.561 191.067 124.715 189.062 118.165 197.411C111.615 205.761 114.897 257.014 118.174 261.86Z" fill="#F8F9FA"/>
<path d="M163.875 205.412C163.875 205.412 166.372 192.717 184.623 197.73C202.874 202.743 211.921 213.594 211.921 213.594L195.368 221.777L175.088 214.43C175.088 214.43 163.723 214.577 163.875 205.412Z" fill="#FFD5D8"/>
<path opacity="0.05" d="M197.26 202.237C197.26 202.237 214.811 206.288 216.466 209.078C216.501 209.144 216.548 209.202 216.603 209.25C217.076 209.584 217.852 217.6 222.841 216.597C227.831 215.595 238.921 224.78 238.921 224.78C238.921 224.78 246.564 225.615 249.217 233.297C251.87 240.978 256.392 256.012 259.357 257.845C262.323 259.678 258.109 272.706 254.68 274.048C251.251 275.39 238.926 278.56 237.834 276.889C236.741 275.218 227.225 273.38 227.85 268.038C228.474 262.696 232.215 257.683 229.269 254.508C226.322 251.333 224.435 242.983 220.065 241.312C215.695 239.641 207.896 239.14 203.219 242.482C198.541 245.824 192.89 245.971 192.89 245.971C192.89 245.971 183.218 239.96 181.657 235.783C180.607 232.968 175.377 228.259 172.076 225.489C171.21 224.762 170.504 223.841 170.005 222.792C169.506 221.743 169.226 220.589 169.186 219.413C169.049 215.291 168.926 209.215 169.332 208.232C169.957 206.713 178.536 197.71 178.536 197.71L197.26 202.237Z" fill="black"/>
<path d="M197.884 201.918C197.884 201.918 215.435 205.969 217.09 208.759C217.125 208.825 217.172 208.883 217.227 208.931C217.7 209.265 218.476 217.281 223.466 216.278C228.455 215.276 239.546 224.461 239.546 224.461C239.546 224.461 247.188 225.296 249.842 232.978C252.495 240.659 257.016 255.693 259.981 257.526C262.947 259.358 258.733 272.387 255.304 273.729C251.875 275.071 239.55 278.24 238.458 276.569C237.365 274.898 227.85 273.06 228.474 267.718C229.098 262.376 232.839 257.363 229.893 254.189C226.946 251.014 225.059 242.664 220.689 240.993C216.319 239.322 208.521 238.821 203.843 242.163C199.166 245.505 193.003 246.087 193.003 246.087C193.003 246.087 183.88 239.656 182.32 235.484C181.27 232.669 176.039 227.96 172.738 225.19C171.873 224.463 171.166 223.542 170.667 222.493C170.168 221.444 169.888 220.29 169.848 219.114C169.711 214.992 169.588 208.916 169.995 207.933C170.619 206.414 179.198 197.411 179.198 197.411L197.884 201.918Z" fill="#FF7C5E"/>
<path d="M157.481 238.142C157.324 238.309 154.671 242.487 157.793 244.821C158.656 245.499 159.654 245.955 160.709 246.155C161.763 246.354 162.847 246.291 163.875 245.971L157.481 238.142Z" fill="#FFD5D8"/>
<path opacity="0.1" d="M172.44 201.736C172.44 201.736 176.654 192.718 185.682 195.057C194.711 197.396 207.83 205.913 210.951 214.43C214.073 222.947 199.128 233.312 199.128 233.312L181.345 242.163C181.345 242.163 175.888 244.502 174.327 243.682C172.766 242.862 165.279 250.021 165.279 250.021C165.279 250.021 156.856 241.337 156.856 238.33C156.856 235.322 169.962 230.78 169.962 230.78C169.962 230.78 185.569 227.605 185.403 224.435C185.403 224.435 188.056 221.094 186.652 220.091C185.247 219.088 170.193 214.329 170.193 214.329C170.193 214.329 169.649 203.741 172.44 201.736Z" fill="black"/>
<path d="M171.967 201.234C171.967 201.234 176.181 192.216 185.209 194.556C194.238 196.895 207.357 205.412 210.479 213.929C213.6 222.445 198.66 232.805 198.66 232.805L180.877 241.656C180.877 241.656 175.419 243.996 173.859 243.176C172.298 242.355 164.811 249.515 164.811 249.515C164.811 249.515 156.388 240.831 156.388 237.823C156.388 234.816 169.493 230.274 169.493 230.274C169.493 230.274 185.1 227.099 184.935 223.929C184.935 223.929 187.588 220.587 186.183 219.585C184.779 218.582 169.725 213.822 169.725 213.822C169.725 213.822 169.181 203.239 171.967 201.234Z" fill="#FF7C5E"/>
<path opacity="0.1" d="M152.023 219.939C154.553 218.289 157.401 217.279 160.351 216.987C161.207 215.22 158.961 213.296 158.961 211.169C158.961 209.387 158.327 208.708 157.712 207.159C155.48 206.293 157.012 204.07 157.012 204.07L152.023 219.939Z" fill="black"/>
<path d="M148.277 225.62C154.912 225.62 160.29 219.862 160.29 212.759C160.29 205.656 154.912 199.898 148.277 199.898C141.643 199.898 136.264 205.656 136.264 212.759C136.264 219.862 141.643 225.62 148.277 225.62Z" fill="#FFD5D8"/>
<path d="M139.272 218.035C141.954 215.817 145.444 215.073 148.821 214.749C150.93 214.546 153.077 214.475 155.102 213.787C156.266 213.352 157.395 212.817 158.478 212.187C159.926 211.397 161.42 210.566 162.409 209.184C163.95 207.027 163.903 204.04 164.868 201.523C166.613 196.966 171.428 194.606 175.996 193.993C178.649 193.634 181.549 193.634 183.648 191.857C184.726 190.936 185.462 189.634 185.725 188.186C185.809 187.872 185.782 187.537 185.649 187.244C185.519 187.054 185.344 186.904 185.143 186.808C182.4 185.244 179.099 185.649 175.992 185.573C170.936 185.456 166.008 183.968 161.117 182.595C159.046 182.013 156.809 181.456 154.813 182.276C152.921 183.051 151.64 184.894 150.122 186.327C143.917 192.191 133.616 191.34 128.097 197.943C126.82 199.462 125.86 201.553 126.328 203.543C126.522 204.359 126.938 205.103 127.075 205.933C127.345 207.569 126.474 209.139 125.737 210.597C124.999 212.055 124.356 213.837 125.041 215.321C126.096 217.59 129.298 217.422 130.967 219.22C131.743 220.056 132.112 221.245 132.921 222.056C134.216 223.332 136.198 223.23 137.948 223.068C138.894 222.972 140.44 222.638 140.171 221.281C139.944 220.066 138.445 219.544 139.272 218.035Z" fill="#85596B"/>
<path d="M135.077 225.717C135.077 225.717 143.269 219.134 148.414 221.291C153.56 223.448 154.964 224.633 158.242 223.316C161.519 222 162.919 225.99 162.919 225.99L142.507 232.299L135.077 225.717Z" fill="#F8F9FA"/>
<path opacity="0.05" d="M124.025 237.226C124.025 237.226 127.77 226.871 132.292 224.866L124.025 237.226Z" fill="black"/>
<path opacity="0.05" d="M119.186 233.884C119.186 233.884 122.932 223.529 127.453 221.524L119.186 233.884Z" fill="black"/>
<path opacity="0.05" d="M206.851 236.39C206.851 236.39 220.093 229.545 228.999 230.213C237.904 230.881 239.451 224.871 239.451 224.871" fill="black"/>
<path d="M149.563 407.315C148.462 406.216 147.426 404.92 147.104 403.345C146.783 401.77 147.412 399.876 148.821 399.294C150.396 398.646 152.084 399.8 153.361 401C154.638 402.201 156.104 403.532 157.774 403.279C156.914 402.444 156.271 401.385 155.907 400.205C155.543 399.024 155.471 397.763 155.698 396.545C155.771 396.041 155.97 395.569 156.275 395.177C157.149 394.165 158.739 394.605 159.784 395.395C163.094 397.927 164.04 402.752 164.064 407.117C164.4 405.542 164.116 403.902 164.125 402.287C164.135 400.671 164.546 398.884 165.819 398.013C166.611 397.557 167.502 397.333 168.401 397.365C169.9 397.304 171.57 397.466 172.591 398.641C173.863 400.099 173.537 402.545 172.426 404.15C171.314 405.755 169.635 406.763 168.089 407.872C166.847 408.664 165.788 409.746 164.991 411.036C164.896 411.217 164.819 411.407 164.759 411.603H155.371C153.263 410.461 151.31 409.018 149.563 407.315Z" fill="#2659DB"/>
<path d="M366.422 362.173C365.691 361.535 365.158 360.673 364.894 359.702C364.696 358.72 365.088 357.545 365.963 357.171C366.942 356.771 367.992 357.495 368.801 358.234C369.61 358.973 370.504 359.809 371.544 359.652C371.009 359.133 370.609 358.474 370.383 357.74C370.156 357.006 370.112 356.222 370.253 355.464C370.298 355.151 370.423 354.857 370.612 354.614C371.156 353.991 372.145 354.259 372.797 354.75C374.869 356.31 375.446 359.307 375.46 362.037C375.668 361.059 375.493 360.037 375.498 359.034C375.503 358.031 375.758 356.918 376.553 356.381C377.046 356.096 377.601 355.956 378.161 355.976C379.106 355.94 380.128 356.042 380.766 356.771C381.556 357.677 381.353 359.196 380.662 360.194C379.972 361.191 378.927 361.819 377.967 362.508C377.195 363.001 376.537 363.674 376.042 364.477C375.984 364.588 375.936 364.705 375.9 364.827H370.031C368.722 364.12 367.508 363.228 366.422 362.173Z" fill="#2659DB"/>
</g>
<defs>
<linearGradient id="paint0_linear_2_17" x1="198.234" y1="311.341" x2="198.234" y2="180.484" gradientUnits="userSpaceOnUse">
<stop stop-color="#808080" stop-opacity="0.25"/>
<stop offset="0.54" stop-color="#808080" stop-opacity="0.12"/>
<stop offset="1" stop-color="#808080" stop-opacity="0.1"/>
</linearGradient>
<clipPath id="clip0_2_17">
<rect width="500" height="423.077" fill="white"/>
</clipPath>
</defs>
</svg>
